<svg xmlns="http://www.w3.org/2000/svg" viewBox="0 0 164 111.84"><defs><style>.cls-1{fill:none;}.cls-1,.cls-2{stroke:#222221;stroke-miterlimit:10;stroke-width:4px;}.cls-2{fill:#222221;}.cls-3{fill:#fff;}</style></defs><g id="Capa_2" data-name="Capa 2"><g id="Capa_19_copia" data-name="Capa 19 copia"><g id="Capa_12_copia_3" data-name="Capa 12 copia 3"><path class="cls-1" d="M2.85,28.2c3.77,12,19.7,18.27,30.39,12.16,6.9-3.94,10.67-12.5,9.48-20.67A20.8,20.8,0,0,0,28.87,2.92c-.66-.22-10.18-3.2-18.48,2.91A20.73,20.73,0,0,0,2.85,28.2Z"/><path class="cls-1" d="M121.91,28.2c3.77,12,19.7,18.27,30.39,12.16,6.9-3.94,10.67-12.5,9.49-20.67A20.83,20.83,0,0,0,147.93,2.92c-.66-.22-10.18-3.2-18.48,2.91A20.73,20.73,0,0,0,121.91,28.2Z"/><path class="cls-2" d="M13.79,17c-2.25,4.92-.08,12.67,6.08,14.83C24.92,33.62,31,31.07,33,26.26s-1.41-9.58-1.7-10c-2.82-3.72-8.19-5.73-12.65-3.89A9.51,9.51,0,0,0,13.79,17Z"/><path class="cls-3" d="M19.61,21.85a3.93,3.93,0,0,0,2.68,3.89,3.84,3.84,0,0,0,4.62-2.18,4.09,4.09,0,0,0-1-3.89,3.9,3.9,0,0,0-4.13-1.22A3.76,3.76,0,0,0,19.61,21.85Z"/><path class="cls-2" d="M122.75,14a46.66,46.66,0,0,0,7.18-.43c5.78-.79,8.11-2.18,13.11-1.92a12.1,12.1,0,0,1,5,1,11,11,0,0,1,5.56,6.63c1.27,4.84-1.52,10.24-6.08,12.47a10.85,10.85,0,0,1-10.87-.64c-5.2-3.63-4.34-10.41-4.26-10.93a12.68,12.68,0,0,1,5.25-8.3"/><path class="cls-3" d="M139.14,21.38a4,4,0,0,0,2.67,3.89,3.84,3.84,0,0,0,4.62-2.19,4.1,4.1,0,0,0-1-3.89A3.92,3.92,0,0,0,141.32,18,3.75,3.75,0,0,0,139.14,21.38Z"/><path class="cls-1" d="M67.9,60.75a11.23,11.23,0,0,0,1,8c2.55,4.32,7.73,5,10.29,5.27,5.64.69,14.72-.76,17.56-7.28a11.32,11.32,0,0,0,.5-7.27C95.4,52.66,86.9,47.78,80.44,50c-3.58,1.21-7.59,5-7,8.78.45,3.06,3.68,5.27,6.27,6,3.34,1,4.83-.72,6.77.25,2.17,1.08,2.23,4.13,2.76,14.55.4,7.68-.24,15.42.5,23.07.15,1.56.27,2.47-.25,3.51-2.59,5.19-16.35,4.32-25.33,1-10.3-3.79-16.38-11.53-19.32-16.06"/><path class="cls-1" d="M67.9,60.75a11.23,11.23,0,0,0,1,8c2.55,4.32,7.73,5,10.29,5.27,5.64.69,14.72-.76,17.56-7.28a11.32,11.32,0,0,0,.5-7.27C95.4,52.66,86.9,47.78,80.44,50c-3.58,1.21-7.59,5-7,8.78.45,3.06,3.68,5.27,6.27,6,3.34,1,4.83-.72,6.77.25,2.17,1.08,2.23,4.13,2.76,14.55.4,7.68-.24,15.42.5,23.07.15,1.56.27,2.47-.25,3.51-2.59,5.19-16.35,4.32-25.33,1-10.3-3.79-16.38-11.53-19.32-16.06"/><path class="cls-1" d="M90.22,106.41a35.8,35.8,0,0,0,19.32-3.27c12.14-5.86,16.75-16.85,17.81-19.56"/></g></g></g></svg>